Motion_kv08_l
version=1
nRows=12
nColumns=43
inDegrees=yes
endheader
time	pelvis_tilt	pelvis_list	pelvis_rotation	pelvis_tx	pelvis_ty	pelvis_tz	hip_flexion_r	hip_adduction_r	hip_rotation_r	knee_angle_r	ankle_angle_r	subtalar_angle_r	mtp_angle_r	hip_flexion_l	hip_adduction_l	hip_rotation_l	knee_angle_l	ankle_angle_l	subtalar_angle_l	mtp_angle_l	lumbar_extension	lumbar_bending	lumbar_rotation	neck_flexion	neck_lateral_bending	neck_rotation	arm_flex_r	arm_add_r	arm_rot_r	elbow_flex_r	pro_sup_r	wrist_flex_r	wrist_dev_r	hand_finger_flex_r	arm_flex_l	arm_add_l	arm_rot_l	elbow_flex_l	pro_sup_l	wrist_flex_l	wrist_dev_l	hand_finger_flex_l
      1.76500000	      0.49447230	    -10.53310595	     88.14185502	     -0.00629886	      0.67334030	      0.35547591	     73.01498972	     -3.71749112	      1.57112975	   -104.34717815	     19.55536016	      2.45885149	     22.42205464	     73.88825504	    -11.01493500	      3.40847505	   -102.86378401	     14.96341501	     26.83655958	     39.54315466	    -39.95441689	     -0.08549849	      1.09937140	     29.73751249	      0.51731419	     -1.14496814	    104.76468569	    -24.77248743	     22.12043663	     59.93346125	    127.68359769	      5.34298609	     -9.62276600	     -4.70988346	     88.72624486	    -28.19398088	     20.20095185	     55.33420071	    122.50738675	    -35.16084976	     -6.39038944	    -11.55571900
      1.76750000	      0.57686199	    -10.59008403	     88.19456299	     -0.00631906	      0.67566866	      0.35510542	     72.73189924	     -3.69359905	      1.41756229	   -103.90496007	     19.49633006	      2.19585711	     22.29866782	     73.65622926	    -10.99194103	      3.43771760	   -102.45148711	     14.92077159	     26.74834497	     39.44578660	    -39.88304991	      0.01322725	      1.14255120	     29.69907624	      0.55101227	     -1.17567267	    103.75872143	    -24.76411060	     21.45194896	     60.20505309	    127.92285990	      5.38830611	     -9.49551461	     -4.28525634	     87.76752166	    -27.97176868	     19.34374832	     55.48081619	    122.66341282	    -34.99408515	     -6.31579715	    -11.58083897
      1.77000000	      0.60356950	    -10.61387419	     88.21236798	     -0.00627659	      0.67782764	      0.35463330	     72.47170852	     -3.68294112	      1.33735680	   -103.54591259	     19.38726301	      2.15116899	     22.24610290	     73.39550421	    -10.98787354	      3.41295541	   -102.08024362	     14.82006629	     26.73169114	     39.40289083	    -39.79784291	      0.05764007	      1.14929779	     29.39659498	      0.45375435	     -1.16264051	    102.93393012	    -24.97666572	     21.44232499	     60.38381707	    127.99623362	      5.48206005	     -9.54313984	     -4.11761218	     86.99065702	    -28.06904683	     19.23257779	     55.51916720	    122.75460185	    -34.95040669	     -6.32832037	    -11.59446129
      1.77250000	      0.76254067	    -10.72581752	     88.28654257	     -0.00612681	      0.68017939	      0.35418101	     72.20790619	     -3.60300758	      1.09064855	   -103.07033569	     19.28466277	      1.78152092	     21.96377534	     73.23780683	    -11.02155211	      3.53563630	   -101.67670003	     14.77060510	     26.72560040	     39.21418717	    -39.66249755	      0.21233166	      1.21367736	     29.31269037	      0.48523836	     -1.20796410	    101.80792965	    -24.86362901	     20.50844321	     60.72156050	    128.73523980	      5.77577380	     -9.37600198	     -3.05563253	     85.94618597	    -27.85871213	     18.10087099	     55.72011608	    123.51461946	    -34.13550822	     -6.44051842	    -11.61879625
      1.77500000	      0.76111737	    -10.74352385	     88.29750941	     -0.00611857	      0.68244718	      0.35373664	     71.92586947	     -3.60910440	      1.04288377	   -102.67417965	     19.21070941	      1.78517140	     21.92430253	     72.95321838	    -11.00239489	      3.48177056	   -101.27000786	     14.65307892	     26.72063589	     39.17798998	    -39.59003603	      0.23147508	      1.22238075	     29.03196142	      0.38427965	     -1.19045697	    100.95685663	    -25.10007160	     20.52056474	     60.86716632	    128.71737188	      5.75500827	     -9.49600387	     -2.98055155	     85.14915010	    -27.84781489	     17.94149191	     55.71893085	    123.45877046	    -34.27303110	     -6.31257201	    -11.71593781
      1.77750000	      0.78876350	    -10.76841305	     88.31635437	     -0.00615285	      0.68480851	      0.35325732	     71.62400236	     -3.60426289	      0.96936223	   -102.25145684	     19.15049701	      1.73243417	     21.87826029	     72.67250044	    -10.98515827	      3.45675243	   -100.86347869	     14.54899042	     26.69986354	     39.14167605	    -39.52775716	      0.27100365	      1.23254892	     28.83319508	      0.36382395	     -1.21222628	    100.02982669	    -25.27351131	     20.36570021	     61.04904151	    128.67174239	      5.71141268	     -9.56458643	     -2.88776253	     84.31646041	    -27.82299167	     17.70529584	     55.75188599	    123.39283584	    -34.37831089	     -6.21369947	    -11.80171142
      1.78000000	      0.82655996	    -10.78801222	     88.34389884	     -0.00611861	      0.68718518	      0.35275775	     71.30865796	     -3.59206055	      0.87803126	   -101.81901605	     19.08707966	      1.64621429	     21.82491339	     72.39166376	    -10.97230502	      3.45038534	   -100.45386204	     14.43826802	     26.68142309	     39.10500505	    -39.47142517	      0.31020013	      1.23194768	     28.64350019	      0.36386542	     -1.23781982	     99.05187810	    -25.42163911	     20.14293873	     61.25204319	    128.62416007	      5.68961311	     -9.60462922	     -2.76351588	     83.46711254	    -27.80397955	     17.44362487	     55.80863314	    123.33031910	    -34.43440490	     -6.14544577	    -11.86713757
      1.78250000	      0.86556238	    -10.80639563	     88.37237127	     -0.00611183	      0.68957476	      0.35224097	     70.98842836	     -3.57756472	      0.78415587	   -101.38244455	     19.02289112	      1.54251683	     21.76571185	     72.10990123	    -10.95487347	      3.45088723	   -100.04431309	     14.32052297	     26.67232989	     39.06915513	    -39.42040494	      0.35380627	      1.22672063	     28.47391057	      0.37681287	     -1.26288012	     98.06058778	    -25.55221259	     19.88749200	     61.45045010	    128.58589996	      5.69437784	     -9.62883432	     -2.61110765	     82.61271234	    -27.78985345	     17.16710444	     55.86758165	    123.26632590	    -34.44634726	     -6.09245977	    -11.91324674
      1.78500000	      0.92971250	    -10.83863139	     88.42926729	     -0.00604461	      0.69214550	      0.35180557	     70.64076113	     -3.54999589	      0.64919338	   -100.88280913	     18.98449441	      1.33839788	     21.65102459	     71.83353450	    -10.93275689	      3.49212142	    -99.58711661	     14.20844968	     26.68619061	     39.02114720	    -39.39340110	      0.40894748	      1.20576028	     28.46966848	      0.47941223	     -1.31313763	     96.99154344	    -25.55267931	     19.31111524	     61.65159337	    128.62134583	      5.73246079	     -9.58305859	     -2.26535829	     81.73534418	    -27.67629115	     16.63684671	     55.96078333	    123.20633482	    -34.26994332	     -6.04373409	    -11.94030259
      1.78750000	      0.94539322	    -10.84773918	     88.45110801	     -0.00600281	      0.69447571	      0.35128212	     70.33223031	     -3.54617893	      0.58325512	   -100.46799241	     18.88420382	      1.30134655	     21.59760208	     71.54757936	    -10.91819655	      3.46961608	    -99.18478264	     14.07511700	     26.68796966	     38.99190019	    -39.33692397	      0.43651982	      1.17839453	     28.17687241	      0.41407864	     -1.31253694	     96.06768293	    -25.75921566	     19.29543449	     61.81891826	    128.62604086	      5.81159530	     -9.65357766	     -2.11917230	     80.89626269	    -27.77188471	     16.54832294	     55.99487044	    123.19110254	    -34.25685005	     -6.04015575	    -11.95808121
      1.79000000	      0.98740203	    -10.84612900	     88.52702655	     -0.00605193	      0.69713009	      0.35079456	     69.94194253	     -3.55404603	      0.48461823	    -99.97229555	     18.85661526	      1.13071937	     21.48990049	     71.23464607	    -10.86281163	      3.48583375	    -98.74083584	     13.92918667	     26.71133812	     38.95303559	    -39.34406315	      0.49642708	      1.14467224	     28.16065897	      0.50527408	     -1.37171817	     94.97231207	    -25.78551104	     18.74286322	     62.02212223	    128.63295163	      5.81987698	     -9.66014966	     -1.82245647	     79.97028969	    -27.62239675	     16.01557898	     56.09909157	    123.05117159	    -34.14357146	     -5.97149605	    -11.97123590
      1.79250000	      1.01483777	    -10.83140028	     88.58827020	     -0.00600301	      0.69971233	      0.35028526	     69.56950628	     -3.57543541	      0.37337988	    -99.51919394	     18.79737452	      0.99379116	     21.36150962	     70.89901327	    -10.81332690	      3.50106931	    -98.28026747	     13.77990123	     26.73847988	     38.91605210	    -39.34587383	      0.53801688	      1.10061343	     28.02067796	      0.53555036	     -1.40980228	     93.90894349	    -25.85430167	     18.34270499	     62.22825042	    128.71227123	      5.89948881	     -9.68921864	     -1.45483955	     79.04733726	    -27.56449008	     15.58750749	     56.19402229	    122.98420911	    -33.93975174	     -5.98137210	    -11.95098756
